<svg width="264" height="238" viewBox="0 0 264 238" fill="none" xmlns="http://www.w3.org/2000/svg">
<path d="M21.7703 194.524V210.424C21.7703 212.619 23.7446 214.399 26.1794 214.399H43.8163C46.2511 214.399 48.2254 212.619 48.2254 210.424V194.524H21.7703Z" fill="#464655"/>
<path d="M215.775 194.524V210.424C215.775 212.619 217.749 214.399 220.184 214.399H237.821C240.256 214.399 242.23 212.619 242.23 210.424V194.524H215.775Z" fill="#464655"/>
<path d="M242.23 198.499H21.7703C12.0296 198.499 4.1333 191.38 4.1333 182.599V39.5011C4.1333 30.7197 12.0296 23.6011 21.7703 23.6011H242.229C251.97 23.6011 259.866 30.7197 259.866 39.5011V182.599C259.866 191.38 251.97 198.499 242.23 198.499Z" fill="#B4B6C1"/>
<path d="M34.9981 63.3507H26.1794C23.7446 63.3507 21.7703 65.1306 21.7703 67.3256V83.2256C21.7703 85.4206 23.7446 87.2004 26.1794 87.2004H34.9976C37.4324 87.2004 39.4067 85.4206 39.4067 83.2256V67.3256C39.4072 65.1306 37.4329 63.3507 34.9981 63.3507Z" fill="#707487"/>
<path d="M34.9981 134.9H26.1794C23.7446 134.9 21.7703 136.68 21.7703 138.875V154.775C21.7703 156.97 23.7446 158.75 26.1794 158.75H34.9976C37.4324 158.75 39.4067 156.97 39.4067 154.775V138.875C39.4072 136.679 37.4329 134.9 34.9981 134.9Z" fill="#707487"/>
<path d="M233.411 142.85H224.593C219.722 142.85 215.775 139.291 215.775 134.9V87.2005C215.775 82.8096 219.722 79.2507 224.593 79.2507H233.411V142.85Z" fill="#464655"/>
<path d="M242.23 19.8749H21.7702C9.76645 19.8749 0 28.6795 0 39.501V182.599C0 192.147 7.60289 200.119 17.637 201.866V210.424C17.637 214.67 21.4691 218.125 26.1798 218.125H43.8168C48.5275 218.125 52.3597 214.67 52.3597 210.424V202.226H211.641V210.424C211.641 214.671 215.473 218.126 220.184 218.126H237.821C242.532 218.126 246.364 214.671 246.364 210.424V201.866C256.397 200.12 264 192.147 264 182.599V39.501C264 28.6795 254.234 19.8749 242.23 19.8749ZM44.0916 210.424C44.0916 210.56 43.9684 210.672 43.8163 210.672H26.1793C26.0272 210.672 25.904 210.56 25.904 210.424V202.226H44.0916V210.424ZM237.821 210.672H220.184C220.032 210.672 219.908 210.56 219.908 210.424V202.226H238.096V210.424C238.096 210.56 237.973 210.672 237.821 210.672ZM255.733 182.599C255.733 189.311 249.675 194.772 242.23 194.772H21.7702C14.3246 194.772 8.26702 189.311 8.26702 182.599V39.501C8.26702 32.7887 14.3246 27.3277 21.7702 27.3277H242.229C249.675 27.3277 255.732 32.7887 255.732 39.501V182.599H255.733Z" fill="black"/>
<path d="M233.411 43.7246H30.5889C28.3063 43.7246 26.4552 45.3929 26.4552 47.4513V59.6246H26.1798C21.4691 59.6246 17.637 63.0793 17.637 67.3261V83.2261C17.637 87.4729 21.4691 90.9276 26.1798 90.9276H26.4552V131.174H26.1798C21.4691 131.174 17.637 134.629 17.637 138.875V154.775C17.637 159.022 21.4691 162.477 26.1798 162.477H26.4552V174.65C26.4552 176.708 28.3058 178.377 30.5889 178.377H233.412C235.694 178.377 237.545 176.708 237.545 174.65V47.4508C237.545 45.3929 235.694 43.7246 233.411 43.7246ZM229.278 139.123H224.593C222.01 139.123 219.908 137.228 219.908 134.9V87.2005C219.908 84.8716 222.01 82.9769 224.593 82.9769H229.278V139.123ZM25.904 83.2256V67.3257C25.904 67.189 26.0272 67.0774 26.1793 67.0774H30.5699C30.5761 67.0774 30.5822 67.0784 30.5884 67.0784C30.5951 67.0784 30.6008 67.0774 30.607 67.0774H34.9975C35.1497 67.0774 35.2729 67.1895 35.2729 67.3257V83.2256C35.2729 83.3623 35.1497 83.4739 34.9975 83.4739H26.1793C26.0272 83.4739 25.904 83.3623 25.904 83.2256ZM25.904 154.774V138.874C25.904 138.738 26.0272 138.626 26.1793 138.626H34.9975C35.1497 138.626 35.2729 138.738 35.2729 138.874V154.774C35.2729 154.911 35.1497 155.023 34.9975 155.023H26.1793C26.0272 155.023 25.904 154.911 25.904 154.774ZM34.7222 170.923V162.476H34.9975C39.7083 162.476 43.5404 159.021 43.5404 154.774V138.874C43.5404 134.628 39.7083 131.173 34.9975 131.173H34.7222V90.9267H34.9975C39.7083 90.9267 43.5404 87.472 43.5404 83.2252V67.3252C43.5404 63.0784 39.7083 59.6237 34.9975 59.6237H34.7222V51.177H229.278V75.5236H224.593C217.451 75.5236 211.641 80.7615 211.641 87.2V134.9C211.641 141.338 217.451 146.576 224.593 146.576H229.278V170.923H34.7222Z" fill="black"/>
<g clip-path="url(#clip0_26_79)">
<path d="M196.629 56.786H67.371V166.182H196.629V56.786Z" fill="white" fill-opacity="0.01"/>
<path fill-rule="evenodd" clip-rule="evenodd" d="M132.001 159.345C140.673 159.345 155.502 149.773 155.502 111.484C155.502 73.1955 140.673 63.6233 132.001 63.6233C123.328 63.6233 108.499 73.8405 108.499 111.484C108.499 149.128 123.328 159.345 132.001 159.345Z" stroke="black" stroke-width="4" stroke-linecap="round" stroke-linejoin="round"/>
<path fill-rule="evenodd" clip-rule="evenodd" d="M81.1181 136.554C85.4544 142.964 103.045 148.909 143.751 128.853C184.457 108.797 187.219 92.8237 182.882 86.4142C178.546 80.0047 160.27 74.3971 120.25 94.1153C80.2296 113.833 76.7818 130.145 81.1181 136.554Z" stroke="black" stroke-width="4" stroke-linecap="round" stroke-linejoin="round"/>
<path fill-rule="evenodd" clip-rule="evenodd" d="M81.1178 86.4142C76.7816 92.8237 79.5435 108.797 120.249 128.853C160.955 148.909 178.546 142.964 182.882 136.554C187.219 130.145 183.771 113.833 143.751 94.1153C103.731 74.3971 85.4542 80.0047 81.1178 86.4142Z" stroke="black" stroke-width="4" stroke-linecap="round" stroke-linejoin="round"/>
<g clip-path="url(#clip1_26_79)">
<path d="M144.14 100.13H120.124V122.27H144.14V100.13Z" stroke="black" stroke-width="3.192" stroke-linecap="round" stroke-linejoin="round"/>
<path d="M142.939 101.237H121.325V121.163H142.939V101.237Z" stroke="black" stroke-width="3.192" stroke-linecap="round" stroke-linejoin="round"/>
<path d="M136.935 106.772H127.329V115.628H136.935V106.772Z" stroke="black" stroke-width="3.192" stroke-linecap="round" stroke-linejoin="round"/>
<path d="M135.734 107.879H128.53V114.521H135.734V107.879Z" stroke="black" stroke-width="3.192" stroke-linecap="round" stroke-linejoin="round"/>
<path d="M127.329 127.805V121.163" stroke="black" stroke-width="3.192" stroke-linecap="round"/>
<path d="M132.132 127.805V121.163" stroke="black" stroke-width="3.192" stroke-linecap="round"/>
<path d="M136.935 127.805V121.163" stroke="black" stroke-width="3.192" stroke-linecap="round"/>
<path d="M127.329 101.237V94.5952" stroke="black" stroke-width="3.192" stroke-linecap="round"/>
<path d="M132.132 101.237V94.5952" stroke="black" stroke-width="3.192" stroke-linecap="round"/>
<path d="M136.935 101.237V94.5952" stroke="black" stroke-width="3.192" stroke-linecap="round"/>
<path d="M150.144 115.628H142.939" stroke="black" stroke-width="3.192" stroke-linecap="round"/>
<path d="M150.144 111.2H142.939" stroke="black" stroke-width="3.192" stroke-linecap="round"/>
<path d="M150.144 106.772H142.939" stroke="black" stroke-width="3.192" stroke-linecap="round"/>
<path d="M121.325 115.628H114.12" stroke="black" stroke-width="3.192" stroke-linecap="round"/>
<path d="M121.325 111.2H114.12" stroke="black" stroke-width="3.192" stroke-linecap="round"/>
<path d="M121.325 106.772H114.12" stroke="black" stroke-width="3.192" stroke-linecap="round"/>
</g>
</g>
<defs>
<clipPath id="clip0_26_79">
<rect width="129.258" height="109.396" fill="white" transform="translate(67.371 56.786)"/>
</clipPath>
<clipPath id="clip1_26_79">
<rect width="38.4257" height="35.4236" fill="white" transform="translate(112.919 93.4883)"/>
</clipPath>
</defs>
</svg>
